<?xml version="1.0" encoding="UTF-8"?>
<svg id="Calque_1" data-name="Calque 1" xmlns="http://www.w3.org/2000/svg" viewBox="0 0 1660 880">
  <defs>
    <style>
      .cls-1 {
        font-family: Poppins-Regular, Poppins;
        font-size: 55.29px;
      }

      .cls-1, .cls-2 {
        fill: #fff;
      }

      .cls-3 {
        stroke-width: 3px;
      }

      .cls-3, .cls-4 {
        fill: none;
        stroke: #fff;
        stroke-miterlimit: 10;
      }

      .cls-5 {
        opacity: .07;
      }

      .cls-4 {
        stroke-width: 2px;
      }

      .cls-6 {
        fill: #1d1d1b;
      }

      .cls-6, .cls-2, .cls-7, .cls-8, .cls-9 {
        stroke-width: 0px;
      }

      .cls-7 {
        fill: #ffdc00;
      }

      .cls-8 {
        fill: #fafbfd;
      }

      .cls-9 {
        fill: #0074fa;
      }
    </style>
  </defs>
  <rect class="cls-6" y="0" width="1660" height="880" rx="23.09" ry="23.09"/>
  <g class="cls-5">
    <polygon class="cls-3" points="1272.18 -180.55 924.15 -180.55 924.15 977.75 1272.18 977.75 1503.3 282.77 1272.18 -180.55"/>
    <polygon class="cls-3" points="1734.96 -180.55 1503.3 282.77 1734.96 977.75 2082.45 977.75 2082.45 -180.55 1734.96 -180.55"/>
  </g>
  <g>
    <polygon class="cls-8" points="282.95 607.42 262.59 607.42 262.59 675.19 282.95 675.19 296.47 634.53 282.95 607.42"/>
    <polygon class="cls-8" points="310.03 607.42 296.47 634.53 310.03 675.19 330.36 675.19 330.36 607.42 310.03 607.42"/>
  </g>
  <g>
    <g>
      <path class="cls-8" d="m334.25,255.22c7.04,0,12.63,2.13,16.78,6.39,4.14,4.26,6.22,10.08,6.22,17.46v33.84h-8.46v-32.3c0-5.41-1.41-9.65-4.23-12.72-2.82-3.07-6.69-4.6-11.61-4.6-2.01,0-3.92.32-5.73.97-1.82.64-3.51,1.63-5.08,2.95-1.57,1.33-2.82,3.14-3.75,5.45-.93,2.31-1.39,4.96-1.39,7.95v32.3h-8.46v-32.3c0-5.41-1.41-9.65-4.23-12.72-2.82-3.07-6.69-4.6-11.61-4.6-1.97,0-3.85.31-5.65.94-1.8.62-3.48,1.59-5.05,2.9-1.57,1.31-2.83,3.11-3.78,5.42-.95,2.31-1.42,5-1.42,8.06v32.3h-8.52v-56.49h8.52v9.77c1.85-3.71,4.45-6.46,7.78-8.26,3.33-1.8,6.89-2.7,10.67-2.7,9.73,0,16.22,4.07,19.47,12.21,1.59-3.86,4.16-6.86,7.72-9,3.56-2.14,7.49-3.21,11.81-3.21Z"/>
      <path class="cls-8" d="m372.75,263.71c5.62-5.66,12.54-8.49,20.75-8.49s15.15,2.83,20.81,8.49c5.66,5.66,8.49,12.63,8.49,20.92s-2.83,15.26-8.49,20.92c-5.66,5.66-12.59,8.49-20.81,8.49s-15.13-2.83-20.75-8.49c-5.62-5.66-8.43-12.63-8.43-20.92s2.81-15.26,8.43-20.92Zm20.75-.43c-5.87,0-10.81,2.04-14.82,6.13-4.01,4.09-6.02,9.16-6.02,15.22s2.01,11.09,6.02,15.22c4.01,4.13,8.95,6.19,14.82,6.19s10.82-2.07,14.87-6.22c4.05-4.14,6.07-9.21,6.07-15.19s-2.02-11.08-6.05-15.19c-4.03-4.11-9-6.16-14.9-6.16Z"/>
      <path class="cls-8" d="m457.69,255.22c7.3,0,13.1,2.26,17.4,6.78,4.3,4.52,6.44,10.65,6.44,18.37v32.53h-8.52v-31.74c0-5.41-1.56-9.75-4.68-13-3.12-3.25-7.26-4.88-12.41-4.88s-9.55,1.64-12.75,4.91c-3.2,3.27-4.8,7.6-4.8,12.97v31.74h-8.52v-56.49h8.52v11.01c1.82-3.86,4.39-6.86,7.72-9,3.33-2.14,7.19-3.21,11.58-3.21Z"/>
      <path class="cls-8" d="m544.42,282.93c0,1.7-.04,2.78-.11,3.24h-47.35c.42,6.06,2.5,10.94,6.25,14.65,3.75,3.71,8.57,5.56,14.48,5.56,4.54,0,8.45-1.03,11.72-3.09,3.27-2.06,5.29-4.82,6.05-8.26h8.52c-1.1,5.72-4.09,10.31-8.97,13.8-4.88,3.48-10.73,5.22-17.54,5.22-8.21,0-15.07-2.84-20.58-8.52-5.51-5.68-8.26-12.75-8.26-21.23s2.78-15.02,8.35-20.64c5.56-5.62,12.36-8.43,20.38-8.43,5.03,0,9.61,1.18,13.74,3.55,4.13,2.37,7.38,5.67,9.77,9.91,2.38,4.24,3.58,8.99,3.58,14.25Zm-47.07-3.97h37.98c-.42-4.69-2.32-8.54-5.71-11.55-3.39-3.01-7.6-4.51-12.63-4.51s-9.27,1.46-12.83,4.37c-3.56,2.91-5.83,6.81-6.81,11.7Z"/>
      <path class="cls-8" d="m576.02,255.22c1.48,0,3.24.23,5.28.68v7.95c-1.86-.64-3.69-.97-5.51-.97-4.43,0-8.15,1.56-11.16,4.68s-4.51,7.07-4.51,11.84v33.5h-8.52v-56.49h8.52v9.03c1.66-3.18,3.88-5.68,6.64-7.49,2.76-1.82,5.85-2.73,9.25-2.73Z"/>
      <path class="cls-8" d="m586.87,263.71c5.62-5.66,12.54-8.49,20.75-8.49s15.15,2.83,20.81,8.49c5.66,5.66,8.49,12.63,8.49,20.92s-2.83,15.26-8.49,20.92c-5.66,5.66-12.59,8.49-20.81,8.49s-15.13-2.83-20.75-8.49c-5.62-5.66-8.43-12.63-8.43-20.92s2.81-15.26,8.43-20.92Zm20.75-.43c-5.87,0-10.81,2.04-14.82,6.13-4.01,4.09-6.02,9.16-6.02,15.22s2.01,11.09,6.02,15.22c4.01,4.13,8.95,6.19,14.82,6.19s10.82-2.07,14.87-6.22c4.05-4.14,6.07-9.21,6.07-15.19s-2.02-11.08-6.05-15.19c-4.03-4.11-9-6.16-14.9-6.16Z"/>
      <path class="cls-8" d="m647.31,263.71c5.62-5.66,12.54-8.49,20.75-8.49s15.15,2.83,20.81,8.49c5.66,5.66,8.49,12.63,8.49,20.92s-2.83,15.26-8.49,20.92c-5.66,5.66-12.59,8.49-20.81,8.49s-15.13-2.83-20.75-8.49c-5.62-5.66-8.43-12.63-8.43-20.92s2.81-15.26,8.43-20.92Zm20.75-.43c-5.87,0-10.81,2.04-14.82,6.13-4.01,4.09-6.02,9.16-6.02,15.22s2.01,11.09,6.02,15.22c4.01,4.13,8.95,6.19,14.82,6.19s10.82-2.07,14.87-6.22c4.05-4.14,6.07-9.21,6.07-15.19s-2.02-11.08-6.05-15.19c-4.03-4.11-9-6.16-14.9-6.16Z"/>
    </g>
    <g>
      <polygon class="cls-9" points="181.05 245.21 157.43 245.21 157.43 323.8 181.05 323.8 196.73 276.65 181.05 245.21"/>
      <polygon class="cls-7" points="212.45 245.21 196.73 276.65 212.45 323.8 236.02 323.8 236.02 245.21 212.45 245.21"/>
    </g>
  </g>
  <rect class="cls-4" x="957.23" y="239.12" width="342.21" height="90.78" rx="45.39" ry="45.39"/>
  <g>
    <path class="cls-2" d="m1005.04,279.23h-6.36v26.15h-5.03v-26.15h-3.93v-4.15h3.93v-2.16c0-3.39.88-5.87,2.63-7.44,1.75-1.57,4.56-2.35,8.43-2.35v4.2c-2.21,0-3.77.43-4.67,1.3-.9.87-1.35,2.29-1.35,4.28v2.16h6.36v4.15Z"/>
    <path class="cls-2" d="m1016.41,303.94c-2.3-1.29-4.11-3.12-5.42-5.5-1.31-2.38-1.96-5.13-1.96-8.27s.67-5.83,2.02-8.21c1.34-2.38,3.18-4.2,5.5-5.47,2.32-1.27,4.92-1.91,7.8-1.91s5.47.64,7.8,1.91c2.32,1.27,4.16,3.09,5.5,5.45,1.35,2.36,2.02,5.11,2.02,8.24s-.69,5.89-2.07,8.27c-1.38,2.38-3.25,4.21-5.61,5.5-2.36,1.29-4.98,1.94-7.85,1.94s-5.41-.64-7.71-1.94Zm12.8-3.76c1.58-.85,2.87-2.12,3.84-3.81.98-1.7,1.46-3.76,1.46-6.19s-.48-4.5-1.44-6.19c-.96-1.69-2.21-2.96-3.76-3.79-1.55-.83-3.23-1.24-5.03-1.24s-3.53.41-5.06,1.24c-1.53.83-2.76,2.09-3.68,3.79-.92,1.7-1.38,3.76-1.38,6.19s.45,4.55,1.35,6.25c.9,1.7,2.11,2.96,3.62,3.79,1.51.83,3.17,1.24,4.98,1.24s3.5-.42,5.09-1.27Z"/>
    <path class="cls-2" d="m1055.11,275.96c1.64-.96,3.64-1.44,6-1.44v5.2h-1.33c-5.64,0-8.46,3.06-8.46,9.18v16.48h-5.03v-30.3h5.03v4.92c.88-1.73,2.15-3.08,3.79-4.04Z"/>
    <path class="cls-2" d="m1086.7,301.29h13.49v4.09h-18.52v-38.54h5.03v34.44Z"/>
    <path class="cls-2" d="m1105.56,281.96c1.25-2.34,2.98-4.16,5.17-5.45,2.19-1.29,4.63-1.94,7.33-1.94s4.96.57,6.91,1.71c1.95,1.14,3.41,2.58,4.37,4.31v-5.53h5.09v30.3h-5.09v-5.64c-1,1.77-2.48,3.23-4.45,4.4-1.97,1.16-4.27,1.74-6.88,1.74s-5.12-.66-7.3-1.99-3.89-3.19-5.14-5.58c-1.25-2.4-1.88-5.12-1.88-8.18s.63-5.81,1.88-8.15Zm22.39,2.24c-.92-1.69-2.17-2.99-3.73-3.9-1.57-.9-3.29-1.35-5.17-1.35s-3.59.44-5.14,1.33c-1.55.88-2.78,2.18-3.7,3.87-.92,1.7-1.38,3.69-1.38,5.97s.46,4.34,1.38,6.05c.92,1.71,2.16,3.02,3.7,3.93,1.55.9,3.26,1.35,5.14,1.35s3.6-.45,5.17-1.35c1.57-.9,2.81-2.21,3.73-3.93.92-1.71,1.38-3.71,1.38-6s-.46-4.28-1.38-5.97Z"/>
    <path class="cls-2" d="m1151.75,275.96c1.64-.96,3.64-1.44,6-1.44v5.2h-1.33c-5.64,0-8.46,3.06-8.46,9.18v16.48h-5.03v-30.3h5.03v4.92c.88-1.73,2.15-3.08,3.79-4.04Z"/>
    <path class="cls-2" d="m1163.55,281.96c1.25-2.34,2.98-4.16,5.17-5.45,2.19-1.29,4.63-1.94,7.33-1.94s4.96.57,6.91,1.71c1.95,1.14,3.41,2.58,4.37,4.31v-5.53h5.09v30.3h-5.09v-5.64c-1,1.77-2.48,3.23-4.45,4.4-1.97,1.16-4.27,1.74-6.88,1.74s-5.12-.66-7.3-1.99-3.89-3.19-5.14-5.58c-1.25-2.4-1.88-5.12-1.88-8.18s.63-5.81,1.88-8.15Zm22.39,2.24c-.92-1.69-2.17-2.99-3.73-3.9-1.57-.9-3.29-1.35-5.17-1.35s-3.59.44-5.14,1.33c-1.55.88-2.78,2.18-3.7,3.87-.92,1.7-1.38,3.69-1.38,5.97s.46,4.34,1.38,6.05c.92,1.71,2.16,3.02,3.7,3.93,1.55.9,3.26,1.35,5.14,1.35s3.6-.45,5.17-1.35c1.57-.9,2.81-2.21,3.73-3.93.92-1.71,1.38-3.71,1.38-6s-.46-4.28-1.38-5.97Z"/>
    <path class="cls-2" d="m1212.2,300.73l9.4-25.65h5.36l-11.89,30.3h-5.86l-11.89-30.3h5.42l9.45,25.65Z"/>
    <path class="cls-2" d="m1259.42,292.11h-24.22c.18,2.99,1.21,5.32,3.07,6.99,1.86,1.68,4.12,2.52,6.77,2.52,2.17,0,3.99-.51,5.45-1.52,1.46-1.01,2.48-2.37,3.07-4.06h5.42c-.81,2.91-2.43,5.28-4.87,7.1-2.43,1.82-5.46,2.74-9.07,2.74-2.88,0-5.45-.64-7.71-1.94-2.27-1.29-4.04-3.12-5.33-5.5-1.29-2.38-1.94-5.13-1.94-8.27s.63-5.88,1.88-8.24c1.25-2.36,3.01-4.17,5.28-5.45,2.27-1.27,4.87-1.91,7.82-1.91s5.42.63,7.63,1.88c2.21,1.25,3.92,2.98,5.11,5.17,1.2,2.19,1.8,4.67,1.8,7.44,0,.96-.05,1.97-.17,3.04Zm-6.3-9.04c-.85-1.38-2-2.43-3.46-3.15s-3.07-1.08-4.84-1.08c-2.54,0-4.71.81-6.5,2.43-1.79,1.62-2.81,3.87-3.07,6.75h19.13c0-1.92-.42-3.57-1.27-4.95Z"/>
    <path class="cls-2" d="m1271.25,264.46v40.91h-5.03v-40.91h5.03Z"/>
  </g>
  <text class="cls-1" transform="translate(157.43 458.07)"><tspan x="0" y="0">Easily integrate your Laravel</tspan><tspan x="0" y="66.34">application with Moneroo.</tspan></text>
  <path class="cls-8" d="m227.14,622.27h0s-.02-.06-.04-.09c-.02-.06-.04-.12-.07-.17-.02-.03-.05-.07-.07-.1-.03-.04-.06-.09-.1-.13-.03-.03-.07-.05-.1-.08-.04-.03-.08-.06-.12-.09l-13.07-7.53c-.34-.19-.75-.19-1.09,0l-13.07,7.53s-.08.06-.12.09c-.04.02-.07.05-.11.08-.04.04-.07.08-.1.13-.02.03-.05.06-.07.1-.03.05-.05.11-.07.17-.01.03-.03.06-.04.09-.02.09-.04.19-.04.28v14.29l-10.89,6.27v-27.96c0-.1-.01-.19-.04-.28,0-.03-.03-.06-.04-.09-.02-.06-.04-.11-.07-.17-.02-.04-.05-.06-.07-.1-.03-.04-.06-.09-.1-.13-.03-.03-.07-.06-.11-.08-.04-.03-.08-.06-.12-.09l-13.08-7.53c-.34-.19-.75-.19-1.09,0l-13.07,7.53s-.08.06-.12.09c-.04.02-.07.05-.11.08-.04.04-.07.08-.1.13-.02.03-.05.06-.07.1-.03.05-.05.11-.07.17-.01.03-.03.06-.04.09-.02.09-.04.19-.04.29v44.77c0,.39.21.75.54.94l26.14,15.05c.06.03.12.05.18.07.03.01.06.03.09.04.18.05.37.05.56,0,.03,0,.05-.02.07-.03.07-.02.13-.05.19-.08l26.15-15.05c.34-.19.54-.55.54-.94v-14.29l12.53-7.21c.34-.2.55-.56.54-.95v-14.92c0-.1-.01-.19-.03-.28Zm-53.34-13.38l10.89,6.27-10.89,6.27-10.89-6.27,10.89-6.27Zm11.98,8.15v27.34l-6.32,3.64-4.57,2.63v-27.33l6.32-3.64,4.57-2.64Zm-23.97,42.26v-42.26l4.57,2.63,6.32,3.64v29.22s0,.08.02.12c0,.05.01.11.02.16.01.04.03.08.05.12.02.05.03.09.06.14.03.04.05.07.08.11.03.04.06.08.09.11.03.03.07.05.1.08.04.03.08.06.12.09l12.52,7.09v12.54s-23.95-13.79-23.95-13.79Zm25.05-.63l-10.87-6.15,11.42-6.57,12.53-7.21,10.88,6.26-7.98,4.56-15.97,9.12Zm1.09,14.42v-12.54l17.75-10.13,6.22-3.55v12.41s-23.97,13.8-23.97,13.8Zm23.97-29.98l-4.57-2.62-6.32-3.64v-12.41l4.57,2.63,6.32,3.64v12.4Zm1.09-14.3l-10.89-6.27,10.89-6.27,10.89,6.27-10.89,6.27Zm11.99,8.03l-10.91,6.27v-12.4l6.33-3.64,4.57-2.63v12.41Z"/>
</svg>